<svg height="512" viewBox="0 0 64 64" width="512" xmlns="http://www.w3.org/2000/svg"><g id="Bag-2" data-name="Bag"><path d="m9 13h46a1 1 0 0 1 1 1v23a4 4 0 0 1 -4 4h-40a4 4 0 0 1 -4-4v-23a1 1 0 0 1 1-1z" fill="#ed1c24"/><path d="m20 5h23a1 1 0 0 1 1 1v38a1 1 0 0 1 -1 1h-23a0 0 0 0 1 0 0v-40a0 0 0 0 1 0 0z" fill="#e0e0e2" transform="matrix(0 1 -1 0 57 -7)"/><path d="m55 40v12.084a3.916 3.916 0 0 1 -3.916 3.916h-38.168a3.916 3.916 0 0 1 -3.916-3.916v-12.084" fill="#ed1c24"/><path d="m26.5 27.5h10.025a.975.975 0 0 1 .975.975v36.05a.975.975 0 0 1 -.975.975h-10.025a0 0 0 0 1 0 0v-38a0 0 0 0 1 0 0z" fill="#acabb1" transform="matrix(0 1 -1 0 78.5 14.5)"/><path d="m26 27h12a1 1 0 0 1 1 1v3a0 0 0 0 1 0 0h-14a0 0 0 0 1 0 0v-3a1 1 0 0 1 1-1z" fill="#ff9811" transform="matrix(-1 0 0 -1 64 58)"/><path d="m26 23h12v4h-12z" fill="#aa6100" transform="matrix(-1 0 0 -1 64 50)"/><path d="m25 19h14a0 0 0 0 1 0 0 4 4 0 0 1 -4 4h-6a4 4 0 0 1 -4-4 0 0 0 0 1 0 0z" fill="#ff9811" transform="matrix(-1 0 0 -1 64 42)"/><path d="m16 50h8a1 1 0 0 0 0-2h-8a1 1 0 0 0 0 2z"/><path d="m27 50h1a1 1 0 0 0 0-2h-1a1 1 0 0 0 0 2z"/><path d="m58 55h-2.98a4.87 4.87 0 0 0 .98-2.916v-12.084c0-.009-.005-.016-.005-.025a4.952 4.952 0 0 0 1.005-2.975v-23a2 2 0 0 0 -2-2h-16v-1a5.006 5.006 0 0 0 -5-5h-4a5.006 5.006 0 0 0 -5 5v1h-16a2 2 0 0 0 -2 2v23a4.952 4.952 0 0 0 1.005 2.975c0 .009-.005.016-.005.025v12.084a4.87 4.87 0 0 0 .98 2.916h-6.98a1 1 0 0 0 0 2h56a1 1 0 0 0 0-2zm-31-44a3 3 0 0 1 3-3h4a3 3 0 0 1 3 3v1h-10zm24 3v22h-38v-22zm-42 0h2v22a2 2 0 0 0 2 2h38a2 2 0 0 0 2-2v-22h2v23a3 3 0 0 1 -3 3h-40a3 3 0 0 1 -3-3zm41.025 37h-36.025v-9h36zm-37.109 4a2.919 2.919 0 0 1 -2.916-2.916v-10.508a4.95 4.95 0 0 0 2 .424v9.025a1.977 1.977 0 0 0 1.975 1.975h36.05a1.977 1.977 0 0 0 1.975-1.975v-9.025a4.95 4.95 0 0 0 2-.424v10.508a2.919 2.919 0 0 1 -2.916 2.916z"/><path d="m62 55h-1a1 1 0 0 0 0 2h1a1 1 0 0 0 0-2z"/><path d="m26 32h12a2 2 0 0 0 2-2v-3a1 1 0 0 0 -1-1v-2a1 1 0 0 0 1-1 5.006 5.006 0 0 0 -5-5h-6a5.006 5.006 0 0 0 -5 5 1 1 0 0 0 1 1v2a1 1 0 0 0 -1 1v3a2 2 0 0 0 2 2zm12-2h-12v-2h12zm-9-10h6a3.006 3.006 0 0 1 2.829 2h-11.658a3.006 3.006 0 0 1 2.829-2zm-2 4h10v2h-10z"/></g></svg>